<svg width="54" height="27" viewBox="0 0 54 27" fill="none" xmlns="http://www.w3.org/2000/svg">
<path d="M17.1992 16.416C17.1992 16.0352 17.041 15.7451 16.7246 15.5459C16.4141 15.3467 15.8955 15.1709 15.1689 15.0186C14.4424 14.8662 13.8359 14.6729 13.3496 14.4385C12.2832 13.9229 11.75 13.1758 11.75 12.1973C11.75 11.377 12.0957 10.6914 12.7871 10.1406C13.4785 9.58984 14.3574 9.31445 15.4238 9.31445C16.5605 9.31445 17.4775 9.5957 18.1748 10.1582C18.8779 10.7207 19.2295 11.4502 19.2295 12.3467H17.0938C17.0938 11.9365 16.9414 11.5967 16.6367 11.3271C16.332 11.0518 15.9277 10.9141 15.4238 10.9141C14.9551 10.9141 14.5713 11.0225 14.2725 11.2393C13.9795 11.4561 13.833 11.7461 13.833 12.1094C13.833 12.4375 13.9707 12.6924 14.2461 12.874C14.5215 13.0557 15.0781 13.2402 15.916 13.4277C16.7539 13.6094 17.4102 13.8291 17.8848 14.0869C18.3652 14.3389 18.7197 14.6436 18.9482 15.001C19.1826 15.3584 19.2998 15.792 19.2998 16.3018C19.2998 17.1572 18.9453 17.8516 18.2363 18.3848C17.5273 18.9121 16.5986 19.1758 15.4502 19.1758C14.6709 19.1758 13.9766 19.0352 13.3672 18.7539C12.7578 18.4727 12.2832 18.0859 11.9434 17.5938C11.6035 17.1016 11.4336 16.5713 11.4336 16.0029H13.5078C13.5371 16.5068 13.7275 16.8965 14.0791 17.1719C14.4307 17.4414 14.8965 17.5762 15.4766 17.5762C16.0391 17.5762 16.4668 17.4707 16.7598 17.2598C17.0527 17.043 17.1992 16.7617 17.1992 16.416ZM24.2568 14.9219L23.3076 15.8975V19H21.1719V5.5H23.3076V13.2871L23.9756 12.4521L26.6035 9.49023H29.1699L25.6367 13.4541L29.5479 19H27.0781L24.2568 14.9219ZM32.8438 19H30.708V9.49023H32.8438V19ZM30.5762 7.02051C30.5762 6.69238 30.6787 6.41992 30.8838 6.20312C31.0947 5.98633 31.3936 5.87793 31.7803 5.87793C32.167 5.87793 32.4658 5.98633 32.6768 6.20312C32.8877 6.41992 32.9932 6.69238 32.9932 7.02051C32.9932 7.34277 32.8877 7.6123 32.6768 7.8291C32.4658 8.04004 32.167 8.14551 31.7803 8.14551C31.3936 8.14551 31.0947 8.04004 30.8838 7.8291C30.6787 7.6123 30.5762 7.34277 30.5762 7.02051ZM43.5049 14.3418C43.5049 15.8125 43.1709 16.9873 42.5029 17.8662C41.835 18.7393 40.9385 19.1758 39.8135 19.1758C38.7705 19.1758 37.9355 18.833 37.3086 18.1475V22.6562H35.1729V9.49023H37.1416L37.2295 10.457C37.8564 9.69531 38.709 9.31445 39.7871 9.31445C40.9473 9.31445 41.8555 9.74805 42.5117 10.6152C43.1738 11.4766 43.5049 12.6748 43.5049 14.21V14.3418ZM41.3779 14.1572C41.3779 13.208 41.1875 12.4551 40.8066 11.8984C40.4316 11.3418 39.8926 11.0635 39.1895 11.0635C38.3164 11.0635 37.6895 11.4238 37.3086 12.1445V16.3633C37.6953 17.1016 38.3281 17.4707 39.207 17.4707C39.8867 17.4707 40.417 17.1982 40.7979 16.6533C41.1846 16.1025 41.3779 15.2705 41.3779 14.1572Z" fill="#070707"/>
<rect x="0.5" y="0.5" width="53" height="26" rx="13" stroke="black" stroke-linecap="round" stroke-linejoin="round"/>
</svg>
